<svg xmlns="http://www.w3.org/2000/svg" xmlns:xlink="http://www.w3.org/1999/xlink" width="500" zoomAndPan="magnify" viewBox="0 0 375 374.999991" height="500" preserveAspectRatio="xMidYMid meet" version="1.0"><defs><g/><clipPath id="fb3f1f9753"><path d="M 229.804688 103.738281 L 305.15625 103.738281 L 305.15625 179 L 229.804688 179 Z M 229.804688 103.738281 " clip-rule="nonzero"/></clipPath></defs><g clip-path="url(#fb3f1f9753)"><path fill="#302f2f" d="M 285.882812 152.625 L 282.507812 155.082031 L 279.605469 152.625 Z M 301.972656 147.820312 L 283.601562 162.5625 C 282.054688 163.855469 279.851562 164.253906 277.96875 163.5625 L 262.378906 158 C 261.699219 157.761719 260.988281 157.636719 260.273438 157.636719 L 252.367188 157.636719 L 252.367188 147.609375 L 259.472656 147.609375 C 260.816406 147.609375 262.15625 147.164062 263.226562 146.355469 L 265.304688 144.804688 C 266.085938 144.214844 267.042969 143.878906 267.992188 143.855469 C 268.34375 143.839844 268.636719 143.863281 268.945312 143.921875 L 288.929688 147.195312 C 289.6875 147.316406 290.273438 147.921875 290.292969 148.597656 C 290.308594 149.011719 290.15625 149.390625 289.851562 149.691406 C 289.585938 149.964844 289.222656 150.117188 288.832031 150.117188 L 271.167969 150.117188 C 270.476562 150.117188 269.914062 150.679688 269.914062 151.371094 C 269.914062 152.0625 270.476562 152.625 271.167969 152.625 L 275.722656 152.625 L 281.003906 157.09375 C 281.824219 157.773438 283 157.820312 283.863281 157.195312 L 300.023438 145.421875 C 300.644531 144.941406 301.503906 145.003906 302.058594 145.5625 C 302.34375 145.847656 302.503906 146.242188 302.503906 146.65625 C 302.503906 147.113281 302.304688 147.546875 301.972656 147.820312 Z M 272.421875 173.933594 C 272.421875 175.3125 271.296875 176.441406 269.914062 176.441406 L 234.816406 176.441406 C 233.4375 176.441406 232.3125 175.3125 232.3125 173.933594 L 232.3125 108.75 C 232.3125 107.371094 233.4375 106.246094 234.816406 106.246094 L 239.832031 106.246094 L 239.832031 108.75 C 239.832031 110.828125 241.515625 112.511719 243.59375 112.511719 L 261.140625 112.511719 C 263.21875 112.511719 264.902344 110.828125 264.902344 108.75 L 264.902344 106.246094 L 269.914062 106.246094 C 271.296875 106.246094 272.421875 107.371094 272.421875 108.75 L 272.421875 117.855469 C 272 118.148438 271.601562 118.476562 271.230469 118.84375 C 269.574219 120.503906 268.660156 122.707031 268.660156 125.050781 L 268.660156 126.300781 C 268.660156 127.078125 268.902344 127.804688 269.304688 128.402344 C 268.910156 128.847656 268.660156 129.417969 268.660156 130.0625 L 268.660156 132.566406 C 268.660156 133.210938 268.910156 133.78125 269.304688 134.226562 C 268.902344 134.824219 268.660156 135.550781 268.660156 136.328125 C 268.660156 137.28125 269.019531 138.167969 269.640625 138.832031 C 269.039062 139.5 268.660156 140.371094 268.660156 141.34375 C 268.660156 141.347656 268.660156 141.355469 268.660156 141.363281 C 268.429688 141.347656 268.1875 141.335938 267.921875 141.347656 C 266.433594 141.386719 265.007812 141.886719 263.800781 142.796875 L 261.722656 144.355469 C 261.082031 144.832031 260.277344 145.101562 259.472656 145.101562 L 252.367188 145.101562 L 252.367188 140.089844 C 252.367188 139.398438 251.804688 138.835938 251.113281 138.835938 C 250.421875 138.835938 249.859375 139.398438 249.859375 140.089844 L 249.859375 165.160156 C 249.859375 165.847656 250.421875 166.410156 251.113281 166.410156 C 251.804688 166.410156 252.367188 165.847656 252.367188 165.160156 L 252.367188 160.144531 L 260.273438 160.144531 C 260.707031 160.144531 261.132812 160.21875 261.539062 160.359375 L 272.421875 164.246094 Z M 262.394531 106.246094 L 262.394531 108.75 C 262.394531 109.441406 261.832031 110.003906 261.140625 110.003906 L 243.59375 110.003906 C 242.902344 110.003906 242.339844 109.441406 242.339844 108.75 L 242.339844 106.246094 Z M 292.476562 118.78125 C 294.152344 118.78125 295.730469 119.429688 296.910156 120.617188 C 298.09375 121.800781 298.746094 123.371094 298.746094 125.050781 L 298.746094 126.300781 C 298.746094 126.992188 298.183594 127.554688 297.492188 127.554688 L 272.421875 127.554688 C 271.730469 127.554688 271.167969 126.992188 271.167969 126.300781 L 271.167969 125.050781 C 271.167969 123.378906 271.820312 121.800781 273.003906 120.617188 C 274.183594 119.429688 275.761719 118.78125 277.4375 118.78125 Z M 271.191406 141.75 C 271.183594 141.617188 271.167969 141.480469 271.167969 141.34375 C 271.167969 140.652344 271.730469 140.089844 272.421875 140.089844 L 283.667969 140.089844 L 284.757812 141.351562 C 285.4375 142.140625 286.421875 142.597656 287.464844 142.597656 C 288.507812 142.597656 289.492188 142.144531 290.171875 141.351562 L 291.257812 140.089844 L 297.492188 140.089844 C 297.824219 140.089844 298.136719 140.214844 298.386719 140.472656 C 298.617188 140.695312 298.746094 141.007812 298.746094 141.34375 C 298.746094 142.164062 298.535156 142.96875 298.152344 143.679688 L 292.679688 147.671875 C 292.28125 146.171875 290.980469 144.984375 289.335938 144.722656 Z M 271.527344 137.199219 C 271.296875 136.976562 271.167969 136.660156 271.167969 136.328125 C 271.167969 135.636719 271.730469 135.074219 272.421875 135.074219 L 278.792969 135.074219 C 279.15625 135.074219 279.503906 135.238281 279.742188 135.511719 L 281.519531 137.582031 L 272.421875 137.582031 C 272.089844 137.582031 271.777344 137.453125 271.527344 137.199219 Z M 297.492188 135.074219 C 297.824219 135.074219 298.136719 135.203125 298.382812 135.457031 C 298.617188 135.6875 298.746094 135.996094 298.746094 136.328125 C 298.746094 137.019531 298.183594 137.582031 297.492188 137.582031 L 293.410156 137.582031 L 295.1875 135.511719 C 295.425781 135.238281 295.773438 135.074219 296.136719 135.074219 Z M 298.746094 130.0625 L 298.746094 132.566406 L 296.136719 132.566406 C 295.039062 132.566406 294 133.046875 293.285156 133.878906 L 288.273438 139.722656 C 287.992188 140.039062 287.644531 140.089844 287.464844 140.089844 C 287.28125 140.089844 286.933594 140.039062 286.65625 139.722656 L 281.640625 133.878906 C 280.925781 133.046875 279.890625 132.566406 278.792969 132.566406 L 271.167969 132.566406 L 271.167969 130.0625 Z M 301.128906 142.617188 C 301.203125 142.195312 301.253906 141.773438 301.253906 141.34375 C 301.253906 140.386719 300.894531 139.5 300.273438 138.839844 C 300.875 138.167969 301.253906 137.296875 301.253906 136.328125 C 301.253906 135.558594 301.023438 134.832031 300.609375 134.226562 C 301.003906 133.78125 301.253906 133.210938 301.253906 132.566406 L 301.253906 130.0625 C 301.253906 129.417969 301.003906 128.847656 300.605469 128.402344 C 301.011719 127.800781 301.253906 127.078125 301.253906 126.300781 L 301.253906 125.050781 C 301.253906 122.707031 300.339844 120.503906 298.6875 118.84375 C 297.027344 117.183594 294.824219 116.273438 292.476562 116.273438 L 277.4375 116.273438 C 276.574219 116.273438 275.730469 116.398438 274.929688 116.636719 L 274.929688 108.75 C 274.929688 105.984375 272.683594 103.738281 269.914062 103.738281 L 234.816406 103.738281 C 232.050781 103.738281 229.804688 105.984375 229.804688 108.75 L 229.804688 173.933594 C 229.804688 176.699219 232.050781 178.945312 234.816406 178.945312 L 269.914062 178.945312 C 272.683594 178.945312 274.929688 176.699219 274.929688 173.933594 L 274.929688 165.140625 L 277.117188 165.921875 C 278.007812 166.246094 278.945312 166.410156 279.902344 166.410156 C 281.839844 166.410156 283.71875 165.730469 285.1875 164.507812 L 303.558594 149.765625 C 304.484375 148.996094 305.011719 147.863281 305.011719 146.65625 C 305.011719 145.585938 304.582031 144.539062 303.828125 143.789062 C 303.089844 143.046875 302.117188 142.65625 301.128906 142.617188 " fill-opacity="1" fill-rule="nonzero"/></g><path fill="#302f2f" d="M 236.070312 108.75 C 235.378906 108.75 234.816406 109.316406 234.816406 110.003906 L 234.816406 111.257812 C 234.816406 111.949219 235.378906 112.511719 236.070312 112.511719 C 236.761719 112.511719 237.324219 111.949219 237.324219 111.257812 L 237.324219 110.003906 C 237.324219 109.316406 236.761719 108.75 236.070312 108.75 " fill-opacity="1" fill-rule="nonzero"/><path fill="#302f2f" d="M 268.660156 112.511719 C 269.351562 112.511719 269.914062 111.949219 269.914062 111.257812 L 269.914062 110.003906 C 269.914062 109.316406 269.351562 108.75 268.660156 108.75 C 267.972656 108.75 267.410156 109.316406 267.410156 110.003906 L 267.410156 111.257812 C 267.410156 111.949219 267.972656 112.511719 268.660156 112.511719 " fill-opacity="1" fill-rule="nonzero"/><path fill="#302f2f" d="M 243.59375 171.425781 C 242.902344 171.425781 242.339844 171.988281 242.339844 172.679688 C 242.339844 173.371094 242.902344 173.933594 243.59375 173.933594 L 261.140625 173.933594 C 261.832031 173.933594 262.394531 173.371094 262.394531 172.679688 C 262.394531 171.988281 261.832031 171.425781 261.140625 171.425781 L 243.59375 171.425781 " fill-opacity="1" fill-rule="nonzero"/><path fill="#302f2f" d="M 277.4375 125.046875 C 277.757812 125.046875 278.078125 124.925781 278.324219 124.679688 L 279.574219 123.425781 C 280.066406 122.9375 280.066406 122.144531 279.574219 121.652344 C 279.085938 121.164062 278.292969 121.164062 277.804688 121.652344 L 276.550781 122.90625 C 276.058594 123.398438 276.058594 124.191406 276.550781 124.679688 C 276.792969 124.925781 277.113281 125.046875 277.4375 125.046875 " fill-opacity="1" fill-rule="nonzero"/><path fill="#302f2f" d="M 291.589844 124.679688 C 291.835938 124.925781 292.15625 125.046875 292.476562 125.046875 C 292.800781 125.046875 293.121094 124.925781 293.363281 124.679688 C 293.855469 124.191406 293.855469 123.398438 293.363281 122.90625 L 292.109375 121.652344 C 291.621094 121.164062 290.828125 121.164062 290.339844 121.652344 C 289.847656 122.144531 289.847656 122.9375 290.339844 123.425781 L 291.589844 124.679688 " fill-opacity="1" fill-rule="nonzero"/><path fill="#302f2f" d="M 284.957031 125.046875 C 285.648438 125.046875 286.210938 124.484375 286.210938 123.792969 L 286.210938 122.539062 C 286.210938 121.851562 285.648438 121.285156 284.957031 121.285156 C 284.265625 121.285156 283.703125 121.851562 283.703125 122.539062 L 283.703125 123.792969 C 283.703125 124.484375 284.265625 125.046875 284.957031 125.046875 " fill-opacity="1" fill-rule="nonzero"/><g fill="#302f2f" fill-opacity="1"><g transform="translate(47.707934, 176.733332)"><g><path d="M 19.082031 0.65625 C 26.898438 0.65625 30.433594 -3.453125 30.433594 -9.707031 C 30.433594 -11.023438 29.695312 -11.84375 27.800781 -11.84375 C 26.074219 -11.84375 25.25 -11.023438 25.25 -9.707031 C 25.25 -6.664062 24.019531 -4.441406 20.644531 -4.441406 C 17.191406 -4.441406 15.875 -6.910156 15.875 -10.199219 L 15.875 -32.160156 L 22.539062 -32.160156 C 24.265625 -32.160156 25.003906 -32.902344 25.003906 -34.628906 C 25.003906 -36.355469 24.019531 -37.097656 22.539062 -37.097656 L 15.875 -37.097656 L 15.875 -42.605469 C 15.875 -43.757812 15.132812 -44.828125 13.902344 -45.074219 C 12.75 -45.402344 11.597656 -44.828125 11.023438 -43.839844 C 9.625 -38.90625 7.8125 -37.097656 4.6875 -37.097656 L 3.289062 -37.097656 C 1.808594 -37.097656 0.824219 -36.355469 0.824219 -34.628906 C 0.824219 -32.902344 1.5625 -32.160156 3.289062 -32.160156 L 6.085938 -32.160156 L 6.085938 -12.339844 C 6.085938 -3.703125 10.609375 0.65625 19.082031 0.65625 Z M 19.082031 0.65625 "/></g></g></g><g fill="#302f2f" fill-opacity="1"><g transform="translate(76.001133, 176.733332)"><g><path d="M 40.058594 -4.277344 C 37.34375 -5.183594 36.519531 -6.167969 36.519531 -9.128906 L 36.519531 -25.664062 C 36.519531 -33.3125 30.84375 -37.835938 20.234375 -37.835938 C 10.859375 -37.835938 5.347656 -33.3125 5.347656 -27.0625 C 5.347656 -24.757812 7.15625 -23.523438 9.789062 -23.523438 C 12.585938 -23.523438 14.066406 -24.757812 14.066406 -27.0625 C 14.066406 -30.023438 15.957031 -32.820312 20.234375 -32.820312 C 24.59375 -32.820312 26.730469 -30.269531 26.730469 -27.308594 C 26.730469 -24.019531 25.085938 -21.960938 21.796875 -21.386719 L 13.820312 -20.070312 C 6.085938 -18.753906 3.125 -14.640625 3.125 -8.800781 C 3.125 -2.878906 7.074219 0.65625 14.066406 0.65625 C 20.152344 0.65625 24.347656 -1.234375 26.730469 -4.769531 C 26.898438 -2.136719 29.199219 0 31.914062 0 L 38.496094 0 C 40.222656 0 40.960938 -0.988281 40.960938 -2.46875 C 40.960938 -3.207031 40.632812 -3.867188 40.058594 -4.277344 Z M 18.671875 -4.195312 C 14.640625 -4.195312 12.914062 -6.582031 12.914062 -9.460938 C 12.914062 -12.75 14.558594 -15.21875 18.425781 -15.875 L 23.851562 -16.78125 C 24.921875 -16.945312 25.910156 -17.273438 26.730469 -17.683594 L 26.730469 -14.804688 C 26.730469 -7.894531 23.851562 -4.195312 18.671875 -4.195312 Z M 18.671875 -4.195312 "/></g></g></g><g fill="#302f2f" fill-opacity="1"><g transform="translate(115.726868, 176.733332)"><g><path d="M 18.34375 0.65625 C 29.199219 0.65625 33.804688 -3.453125 33.804688 -11.433594 C 33.804688 -17.601562 30.1875 -20.726562 23.851562 -21.632812 L 18.589844 -22.703125 C 15.464844 -23.195312 13.902344 -25.167969 13.902344 -27.71875 C 13.902344 -31.007812 15.546875 -32.902344 19.410156 -32.902344 C 22.949219 -32.902344 24.265625 -30.925781 24.429688 -28.378906 C 24.757812 -26.898438 25.746094 -25.746094 28.214844 -25.746094 C 30.679688 -25.746094 31.914062 -27.0625 31.914062 -29.28125 C 31.914062 -34.21875 28.128906 -37.835938 18.671875 -37.835938 C 8.472656 -37.835938 4.113281 -33.558594 4.113281 -26.320312 C 4.113281 -20.480469 7.320312 -16.449219 14.148438 -15.464844 L 19.660156 -14.394531 C 22.457031 -13.902344 23.9375 -12.421875 23.9375 -9.789062 C 23.9375 -6.085938 21.46875 -4.195312 17.4375 -4.195312 C 13.40625 -4.195312 11.023438 -5.921875 10.609375 -9.046875 C 10.199219 -10.609375 8.882812 -11.679688 6.828125 -11.679688 C 4.605469 -11.679688 3.125 -10.363281 3.125 -7.894531 C 3.125 -2.714844 7.402344 0.65625 18.34375 0.65625 Z M 18.34375 0.65625 "/></g></g></g><g fill="#302f2f" fill-opacity="1"><g transform="translate(149.695218, 176.733332)"><g><path d="M 19.082031 0.65625 C 26.898438 0.65625 30.433594 -3.453125 30.433594 -9.707031 C 30.433594 -11.023438 29.695312 -11.84375 27.800781 -11.84375 C 26.074219 -11.84375 25.25 -11.023438 25.25 -9.707031 C 25.25 -6.664062 24.019531 -4.441406 20.644531 -4.441406 C 17.191406 -4.441406 15.875 -6.910156 15.875 -10.199219 L 15.875 -32.160156 L 22.539062 -32.160156 C 24.265625 -32.160156 25.003906 -32.902344 25.003906 -34.628906 C 25.003906 -36.355469 24.019531 -37.097656 22.539062 -37.097656 L 15.875 -37.097656 L 15.875 -42.605469 C 15.875 -43.757812 15.132812 -44.828125 13.902344 -45.074219 C 12.75 -45.402344 11.597656 -44.828125 11.023438 -43.839844 C 9.625 -38.90625 7.8125 -37.097656 4.6875 -37.097656 L 3.289062 -37.097656 C 1.808594 -37.097656 0.824219 -36.355469 0.824219 -34.628906 C 0.824219 -32.902344 1.5625 -32.160156 3.289062 -32.160156 L 6.085938 -32.160156 L 6.085938 -12.339844 C 6.085938 -3.703125 10.609375 0.65625 19.082031 0.65625 Z M 19.082031 0.65625 "/></g></g></g><g fill="#302f2f" fill-opacity="1"><g transform="translate(177.988417, 176.733332)"><g><path d="M 30.351562 -37.015625 C 28.625 -37.015625 27.882812 -36.355469 27.882812 -34.875 C 27.882812 -33.886719 28.296875 -33.3125 28.953125 -32.902344 C 31.585938 -32.160156 32.242188 -30.925781 30.761719 -27.554688 L 24.59375 -12.832031 L 18.671875 -27.554688 C 17.355469 -31.007812 17.765625 -32.160156 20.480469 -32.902344 C 21.140625 -33.3125 21.46875 -33.886719 21.46875 -34.875 C 21.46875 -36.355469 20.644531 -37.015625 18.917969 -37.015625 L 3.371094 -37.015625 C 1.644531 -37.015625 0.90625 -36.027344 0.90625 -34.628906 C 0.90625 -33.886719 1.316406 -32.902344 2.222656 -32.40625 C 5.59375 -31.257812 6.746094 -30.597656 8.390625 -26.648438 L 19.328125 -0.164062 L 14.476562 11.515625 C 13.738281 13.40625 12.585938 14.394531 10.609375 14.394531 C 8.390625 14.394531 6.910156 12.75 6.910156 9.128906 C 6.910156 6.992188 5.921875 5.265625 3.042969 5.265625 C 0.164062 5.265625 -1.152344 7.238281 -1.152344 10.035156 C -1.152344 15.875 2.46875 19.246094 9.375 19.246094 C 14.148438 19.246094 17.273438 17.4375 19.246094 12.832031 L 35.699219 -26.648438 C 37.34375 -30.597656 38.496094 -31.257812 41.867188 -32.40625 C 42.773438 -32.902344 43.101562 -33.886719 43.101562 -34.628906 C 43.101562 -36.027344 42.441406 -37.015625 40.714844 -37.015625 Z M 30.351562 -37.015625 "/></g></g></g><g fill="#302f2f" fill-opacity="1"><g transform="translate(218.957256, 176.733332)"><g/></g></g><g fill="#302f2f" fill-opacity="1"><g transform="translate(7.207133, 243.977831)"><g/></g></g><g fill="#302f2f" fill-opacity="1"><g transform="translate(27.357745, 243.977831)"><g/></g></g><g fill="#302f2f" fill-opacity="1"><g transform="translate(47.508357, 243.977831)"><g/></g></g><g fill="#302f2f" fill-opacity="1"><g transform="translate(67.658969, 243.977831)"><g/></g></g><g fill="#302f2f" fill-opacity="1"><g transform="translate(87.809581, 243.977831)"><g/></g></g><g fill="#302f2f" fill-opacity="1"><g transform="translate(107.961811, 243.977831)"><g><path d="M 19.082031 0.65625 C 26.898438 0.65625 30.433594 -3.453125 30.433594 -9.707031 C 30.433594 -11.023438 29.695312 -11.84375 27.800781 -11.84375 C 26.074219 -11.84375 25.25 -11.023438 25.25 -9.707031 C 25.25 -6.664062 24.019531 -4.441406 20.644531 -4.441406 C 17.191406 -4.441406 15.875 -6.910156 15.875 -10.199219 L 15.875 -32.160156 L 22.539062 -32.160156 C 24.265625 -32.160156 25.003906 -32.902344 25.003906 -34.628906 C 25.003906 -36.355469 24.019531 -37.097656 22.539062 -37.097656 L 15.875 -37.097656 L 15.875 -42.605469 C 15.875 -43.757812 15.132812 -44.828125 13.902344 -45.074219 C 12.75 -45.402344 11.597656 -44.828125 11.023438 -43.839844 C 9.625 -38.90625 7.8125 -37.097656 4.6875 -37.097656 L 3.289062 -37.097656 C 1.808594 -37.097656 0.824219 -36.355469 0.824219 -34.628906 C 0.824219 -32.902344 1.5625 -32.160156 3.289062 -32.160156 L 6.085938 -32.160156 L 6.085938 -12.339844 C 6.085938 -3.703125 10.609375 0.65625 19.082031 0.65625 Z M 19.082031 0.65625 "/></g></g></g><g fill="#302f2f" fill-opacity="1"><g transform="translate(136.25501, 243.977831)"><g><path d="M 28.460938 -37.425781 C 23.441406 -37.425781 19.246094 -34.546875 16.699219 -29.363281 L 16.699219 -35.203125 C 16.699219 -36.933594 15.792969 -37.753906 14.066406 -37.753906 C 13.738281 -37.753906 13.324219 -37.671875 12.996094 -37.589844 L 4.113281 -34.957031 C 3.207031 -34.628906 2.386719 -33.886719 2.386719 -32.738281 C 2.386719 -31.75 2.632812 -31.175781 3.453125 -30.679688 C 6.085938 -30.023438 6.828125 -29.035156 6.828125 -26.402344 L 6.828125 -8.964844 C 6.828125 -6.167969 6.003906 -5.183594 3.289062 -4.277344 C 2.714844 -3.867188 2.46875 -3.207031 2.386719 -2.46875 C 2.386719 -0.988281 3.125 0 4.851562 0 L 18.589844 0 C 20.316406 0 21.058594 -0.988281 21.058594 -2.46875 C 21.058594 -3.207031 20.726562 -3.867188 20.152344 -4.277344 C 17.4375 -5.183594 16.699219 -6.167969 16.613281 -8.964844 L 16.613281 -15.957031 L 16.699219 -15.957031 C 16.699219 -24.675781 21.714844 -28.789062 27.964844 -28.789062 C 30.925781 -28.789062 32.902344 -30.023438 32.902344 -33.066406 C 32.902344 -36.109375 31.09375 -37.425781 28.460938 -37.425781 Z M 28.460938 -37.425781 "/></g></g></g><g fill="#302f2f" fill-opacity="1"><g transform="translate(167.015674, 243.977831)"><g><path d="M 40.058594 -4.277344 C 37.34375 -5.183594 36.519531 -6.167969 36.519531 -9.128906 L 36.519531 -25.664062 C 36.519531 -33.3125 30.84375 -37.835938 20.234375 -37.835938 C 10.859375 -37.835938 5.347656 -33.3125 5.347656 -27.0625 C 5.347656 -24.757812 7.15625 -23.523438 9.789062 -23.523438 C 12.585938 -23.523438 14.066406 -24.757812 14.066406 -27.0625 C 14.066406 -30.023438 15.957031 -32.820312 20.234375 -32.820312 C 24.59375 -32.820312 26.730469 -30.269531 26.730469 -27.308594 C 26.730469 -24.019531 25.085938 -21.960938 21.796875 -21.386719 L 13.820312 -20.070312 C 6.085938 -18.753906 3.125 -14.640625 3.125 -8.800781 C 3.125 -2.878906 7.074219 0.65625 14.066406 0.65625 C 20.152344 0.65625 24.347656 -1.234375 26.730469 -4.769531 C 26.898438 -2.136719 29.199219 0 31.914062 0 L 38.496094 0 C 40.222656 0 40.960938 -0.988281 40.960938 -2.46875 C 40.960938 -3.207031 40.632812 -3.867188 40.058594 -4.277344 Z M 18.671875 -4.195312 C 14.640625 -4.195312 12.914062 -6.582031 12.914062 -9.460938 C 12.914062 -12.75 14.558594 -15.21875 18.425781 -15.875 L 23.851562 -16.78125 C 24.921875 -16.945312 25.910156 -17.273438 26.730469 -17.683594 L 26.730469 -14.804688 C 26.730469 -7.894531 23.851562 -4.195312 18.671875 -4.195312 Z M 18.671875 -4.195312 "/></g></g></g><g fill="#302f2f" fill-opacity="1"><g transform="translate(206.741409, 243.977831)"><g><path d="M 11.761719 -44.417969 C 15.546875 -44.417969 17.683594 -46.554688 17.683594 -50.339844 C 17.683594 -53.957031 15.546875 -56.261719 11.761719 -56.261719 C 7.980469 -56.261719 5.839844 -54.121094 5.839844 -50.339844 C 5.839844 -46.554688 7.980469 -44.417969 11.761719 -44.417969 Z M 18.671875 0 C 20.316406 0 21.140625 -0.988281 21.140625 -2.46875 C 21.140625 -3.207031 20.808594 -3.867188 20.152344 -4.277344 C 17.4375 -5.183594 16.699219 -6.167969 16.699219 -8.964844 L 16.699219 -35.203125 C 16.699219 -36.933594 15.875 -37.753906 14.066406 -37.753906 C 13.738281 -37.753906 13.40625 -37.671875 13.078125 -37.589844 L 4.113281 -34.957031 C 3.207031 -34.628906 2.46875 -33.96875 2.46875 -32.738281 C 2.46875 -31.75 2.714844 -31.175781 3.453125 -30.679688 C 6.167969 -30.023438 6.910156 -29.035156 6.910156 -26.402344 L 6.910156 -8.964844 C 6.910156 -6.167969 6.085938 -5.183594 3.371094 -4.277344 C 2.796875 -3.867188 2.46875 -3.207031 2.46875 -2.46875 C 2.46875 -0.988281 3.207031 0 4.851562 0 Z M 18.671875 0 "/></g></g></g><g fill="#302f2f" fill-opacity="1"><g transform="translate(226.563022, 243.977831)"><g><path d="M 17.847656 0 C 19.492188 0 20.316406 -0.988281 20.316406 -2.46875 C 20.316406 -3.207031 19.988281 -3.867188 19.410156 -4.277344 C 16.699219 -5.183594 15.875 -6.167969 15.875 -8.964844 L 15.875 -53.710938 C 15.875 -55.4375 15.050781 -56.261719 13.324219 -56.261719 C 12.996094 -56.261719 12.585938 -56.179688 12.253906 -56.097656 L 3.289062 -53.464844 C 2.386719 -53.136719 1.644531 -52.394531 1.644531 -51.242188 C 1.644531 -50.257812 1.890625 -49.679688 2.632812 -49.1875 C 5.347656 -48.53125 6.085938 -47.542969 6.085938 -44.910156 L 6.085938 -8.964844 C 6.085938 -6.167969 5.265625 -5.183594 2.550781 -4.277344 C 1.972656 -3.867188 1.726562 -3.207031 1.644531 -2.46875 C 1.644531 -0.988281 2.386719 0 4.113281 0 Z M 17.847656 0 "/></g></g></g><g fill="#302f2f" fill-opacity="1"><g transform="translate(245.644401, 243.977831)"><g><path d="M 18.34375 0.65625 C 29.199219 0.65625 33.804688 -3.453125 33.804688 -11.433594 C 33.804688 -17.601562 30.1875 -20.726562 23.851562 -21.632812 L 18.589844 -22.703125 C 15.464844 -23.195312 13.902344 -25.167969 13.902344 -27.71875 C 13.902344 -31.007812 15.546875 -32.902344 19.410156 -32.902344 C 22.949219 -32.902344 24.265625 -30.925781 24.429688 -28.378906 C 24.757812 -26.898438 25.746094 -25.746094 28.214844 -25.746094 C 30.679688 -25.746094 31.914062 -27.0625 31.914062 -29.28125 C 31.914062 -34.21875 28.128906 -37.835938 18.671875 -37.835938 C 8.472656 -37.835938 4.113281 -33.558594 4.113281 -26.320312 C 4.113281 -20.480469 7.320312 -16.449219 14.148438 -15.464844 L 19.660156 -14.394531 C 22.457031 -13.902344 23.9375 -12.421875 23.9375 -9.789062 C 23.9375 -6.085938 21.46875 -4.195312 17.4375 -4.195312 C 13.40625 -4.195312 11.023438 -5.921875 10.609375 -9.046875 C 10.199219 -10.609375 8.882812 -11.679688 6.828125 -11.679688 C 4.605469 -11.679688 3.125 -10.363281 3.125 -7.894531 C 3.125 -2.714844 7.402344 0.65625 18.34375 0.65625 Z M 18.34375 0.65625 "/></g></g></g></svg>