<svg xmlns="http://www.w3.org/2000/svg" xmlns:xlink="http://www.w3.org/1999/xlink" width="500" zoomAndPan="magnify" viewBox="0 0 375 374.999991" height="500" preserveAspectRatio="xMidYMid meet" version="1.0"><defs><clipPath id="4933ea72fd"><path d="M 165 196 L 337.1875 196 L 337.1875 265 L 165 265 Z M 165 196 " clip-rule="nonzero"/></clipPath><clipPath id="f0e73175ee"><path d="M 97.1875 67.34375 L 235 67.34375 L 235 307.34375 L 97.1875 307.34375 Z M 97.1875 67.34375 " clip-rule="nonzero"/></clipPath><clipPath id="06370e260c"><path d="M 131 67.34375 L 201 67.34375 L 201 81 L 131 81 Z M 131 67.34375 " clip-rule="nonzero"/></clipPath></defs><path fill="#ffffff" d="M 324.617188 148.875 L 230.210938 148.875 L 230.210938 157.457031 L 256.3125 157.457031 C 260.066406 157.457031 263.621094 159.101562 266.066406 161.949219 L 283.230469 181.949219 C 284.1875 183.035156 285.378906 183.203125 285.996094 183.203125 C 286.617188 183.203125 287.808594 183.035156 288.761719 181.949219 L 305.929688 161.949219 C 308.375 159.101562 311.929688 157.457031 315.683594 157.457031 L 324.617188 157.457031 L 324.617188 148.875 " fill-opacity="1" fill-rule="nonzero"/><path fill="#ffffff" d="M 323.378906 167.347656 C 322.539062 166.476562 321.46875 166.039062 320.328125 166.039062 L 315.683594 166.039062 C 314.445312 166.039062 313.253906 166.59375 312.433594 167.53125 L 306.347656 174.621094 L 320.328125 174.621094 C 322.691406 174.621094 324.617188 172.695312 324.617188 170.332031 C 324.617188 169.191406 324.183594 168.136719 323.378906 167.347656 " fill-opacity="1" fill-rule="nonzero"/><g clip-path="url(#4933ea72fd)"><path fill="#ffffff" d="M 328.992188 201.457031 L 273.675781 241.773438 C 270.710938 243.902344 266.6875 243.75 263.886719 241.421875 L 245.800781 226.117188 L 230.210938 226.117188 C 227.847656 226.117188 225.921875 224.1875 225.921875 221.824219 C 225.921875 219.460938 227.847656 217.535156 230.210938 217.535156 L 290.675781 217.535156 C 292.015625 217.535156 293.257812 217.015625 294.179688 216.074219 C 295.21875 215.054688 295.738281 213.746094 295.6875 212.335938 C 295.621094 210.023438 293.609375 207.945312 291.011719 207.527344 L 222.601562 196.328125 C 221.546875 196.128906 220.539062 196.042969 219.335938 196.09375 C 216.082031 196.179688 212.8125 197.335938 210.132812 199.347656 L 203.023438 204.660156 C 199.351562 207.425781 194.777344 208.953125 190.167969 208.953125 L 165.84375 208.953125 L 165.84375 243.28125 L 192.917969 243.28125 C 195.363281 243.28125 197.792969 243.699219 200.125 244.519531 L 253.496094 263.5625 C 259.933594 265.925781 267.476562 264.570312 272.773438 260.144531 L 335.664062 209.671875 C 336.804688 208.734375 337.492188 207.257812 337.492188 205.683594 C 337.492188 204.273438 336.9375 202.917969 335.964844 201.945312 C 334.054688 200.035156 331.121094 199.816406 328.992188 201.457031 " fill-opacity="1" fill-rule="nonzero"/></g><path fill="#ffffff" d="M 306.195312 130.453125 C 305.359375 131.292969 304.269531 131.710938 303.164062 131.710938 C 302.054688 131.710938 300.964844 131.292969 300.128906 130.453125 L 295.835938 126.164062 C 294.160156 124.484375 294.160156 121.769531 295.835938 120.09375 C 297.511719 118.417969 300.230469 118.417969 301.90625 120.09375 L 306.195312 124.386719 C 307.871094 126.0625 307.871094 128.777344 306.195312 130.453125 Z M 281.707031 127.417969 C 281.707031 129.78125 279.777344 131.710938 277.414062 131.710938 C 275.050781 131.710938 273.125 129.78125 273.125 127.417969 L 273.125 123.128906 C 273.125 120.765625 275.050781 118.835938 277.414062 118.835938 C 279.777344 118.835938 281.707031 120.765625 281.707031 123.128906 Z M 258.992188 126.164062 L 254.703125 130.453125 C 253.863281 131.292969 252.773438 131.710938 251.667969 131.710938 C 250.5625 131.710938 249.472656 131.292969 248.632812 130.453125 C 246.957031 128.777344 246.957031 126.0625 248.632812 124.386719 L 252.925781 120.09375 C 254.601562 118.417969 257.316406 118.417969 258.992188 120.09375 C 260.671875 121.769531 260.671875 124.484375 258.992188 126.164062 Z M 324.617188 131.726562 C 324.617188 125.976562 322.390625 120.597656 318.332031 116.539062 C 314.292969 112.484375 308.894531 110.253906 303.164062 110.253906 L 251.667969 110.253906 C 245.9375 110.253906 240.539062 112.484375 236.5 116.539062 C 232.441406 120.597656 230.210938 125.996094 230.210938 131.726562 L 230.210938 136.003906 C 230.210938 138.367188 232.140625 140.292969 234.503906 140.292969 L 320.328125 140.292969 C 322.691406 140.292969 324.617188 138.367188 324.617188 136.003906 L 324.617188 131.726562 " fill-opacity="1" fill-rule="nonzero"/><path fill="#ffffff" d="M 265.648438 174.621094 L 259.5625 167.53125 C 258.742188 166.59375 257.550781 166.039062 256.3125 166.039062 L 234.503906 166.039062 C 232.140625 166.039062 230.210938 167.96875 230.210938 170.332031 C 230.210938 171.472656 230.648438 172.542969 231.4375 173.316406 C 232.292969 174.1875 233.363281 174.621094 234.503906 174.621094 L 265.648438 174.621094 " fill-opacity="1" fill-rule="nonzero"/><path fill="#ffffff" d="M 280.582031 226.117188 L 259.09375 226.117188 L 269.035156 234.53125 Z M 280.582031 226.117188 " fill-opacity="1" fill-rule="nonzero"/><path fill="#ffffff" d="M 292.402344 199.0625 C 298.03125 199.96875 302.492188 204.023438 303.851562 209.167969 L 322.589844 195.492188 C 323.898438 193.0625 324.617188 190.3125 324.617188 187.496094 C 324.617188 186.355469 324.183594 185.285156 323.394531 184.511719 C 322.539062 183.640625 321.46875 183.203125 320.328125 183.203125 L 298.988281 183.203125 L 295.265625 187.53125 C 292.9375 190.246094 289.566406 191.785156 285.996094 191.785156 C 282.425781 191.785156 279.058594 190.226562 276.726562 187.53125 L 273.007812 183.203125 L 234.503906 183.203125 C 232.140625 183.203125 230.210938 185.132812 230.210938 187.496094 C 230.210938 187.964844 230.261719 188.433594 230.296875 188.886719 L 292.402344 199.0625 " fill-opacity="1" fill-rule="nonzero"/><g clip-path="url(#f0e73175ee)"><path fill="#ffffff" d="M 217.339844 84.507812 L 217.339844 80.21875 C 217.339844 77.851562 219.265625 75.925781 221.628906 75.925781 C 223.992188 75.925781 225.921875 77.851562 225.921875 80.21875 L 225.921875 84.507812 C 225.921875 86.871094 223.992188 88.800781 221.628906 88.800781 C 219.265625 88.800781 217.339844 86.871094 217.339844 84.507812 Z M 195.882812 290.484375 C 198.246094 290.484375 200.175781 292.410156 200.175781 294.773438 C 200.175781 297.136719 198.246094 299.066406 195.882812 299.066406 L 135.808594 299.066406 C 133.445312 299.066406 131.515625 297.136719 131.515625 294.773438 C 131.515625 292.410156 133.445312 290.484375 135.808594 290.484375 Z M 114.351562 84.507812 C 114.351562 86.871094 112.425781 88.800781 110.058594 88.800781 C 107.695312 88.800781 105.769531 86.871094 105.769531 84.507812 L 105.769531 80.21875 C 105.769531 77.851562 107.695312 75.925781 110.058594 75.925781 C 112.425781 75.925781 114.351562 77.851562 114.351562 80.21875 Z M 230.429688 110.472656 C 231.6875 109.214844 233.0625 108.09375 234.503906 107.085938 L 234.503906 75.925781 C 234.503906 71.199219 230.648438 67.34375 225.921875 67.34375 L 208.757812 67.34375 L 208.757812 75.925781 C 208.757812 83.03125 202.992188 88.800781 195.882812 88.800781 L 135.808594 88.800781 C 128.699219 88.800781 122.933594 83.03125 122.933594 75.925781 L 122.933594 67.34375 L 105.769531 67.34375 C 101.042969 67.34375 97.1875 71.199219 97.1875 75.925781 L 97.1875 299.066406 C 97.1875 303.792969 101.042969 307.648438 105.769531 307.648438 L 225.921875 307.648438 C 230.648438 307.648438 234.503906 303.792969 234.503906 299.066406 L 234.503906 265.910156 L 197.242188 252.601562 C 195.851562 252.113281 194.390625 251.863281 192.917969 251.863281 L 165.84375 251.863281 L 165.84375 269.027344 C 165.84375 271.390625 163.917969 273.320312 161.554688 273.320312 C 159.191406 273.320312 157.261719 271.390625 157.261719 269.027344 L 157.261719 183.203125 C 157.261719 180.839844 159.191406 178.914062 161.554688 178.914062 C 163.917969 178.914062 165.84375 180.839844 165.84375 183.203125 L 165.84375 200.371094 L 190.167969 200.371094 C 192.933594 200.371094 195.683594 199.449219 197.878906 197.804688 L 204.984375 192.472656 C 209.125 189.355469 214.003906 187.648438 219.097656 187.511719 C 220.003906 187.480469 220.84375 187.511719 221.628906 187.5625 C 221.628906 187.546875 221.628906 187.511719 221.628906 187.496094 C 221.628906 184.175781 222.921875 181.191406 224.984375 178.898438 C 222.855469 176.632812 221.628906 173.601562 221.628906 170.332031 C 221.628906 167.664062 222.453125 165.183594 223.828125 163.140625 C 222.484375 161.613281 221.628906 159.652344 221.628906 157.457031 L 221.628906 148.875 C 221.628906 146.679688 222.484375 144.71875 223.828125 143.191406 C 222.453125 141.148438 221.628906 138.667969 221.628906 136.003906 L 221.628906 131.726562 C 221.628906 123.699219 224.75 116.15625 230.429688 110.472656 " fill-opacity="1" fill-rule="nonzero"/></g><g clip-path="url(#06370e260c)"><path fill="#ffffff" d="M 131.515625 75.925781 C 131.515625 78.289062 133.445312 80.21875 135.808594 80.21875 L 195.882812 80.21875 C 198.246094 80.21875 200.175781 78.289062 200.175781 75.925781 L 200.175781 67.34375 L 131.515625 67.34375 L 131.515625 75.925781 " fill-opacity="1" fill-rule="nonzero"/></g></svg>